<?xml version="1.0" encoding="UTF-8" standalone="no"?>
<!-- Created with Inkscape (http://www.inkscape.org/) -->

<svg
   width="375"
   height="667"
   viewBox="0 0 99.218748 176.47708"
   version="1.1"
   id="svg1"
   xml:space="preserve"
   inkscape:version="1.3 (0e150ed6c4, 2023-07-21)"
   sodipodi:docname="iconoHelp.svg"
   xmlns:inkscape="http://www.inkscape.org/namespaces/inkscape"
   xmlns:sodipodi="http://sodipodi.sourceforge.net/DTD/sodipodi-0.dtd"
   xmlns="http://www.w3.org/2000/svg"
   xmlns:svg="http://www.w3.org/2000/svg"><sodipodi:namedview
     id="namedview1"
     pagecolor="#ffffff"
     bordercolor="#000000"
     borderopacity="0.25"
     inkscape:showpageshadow="2"
     inkscape:pageopacity="0.0"
     inkscape:pagecheckerboard="0"
     inkscape:deskcolor="#d1d1d1"
     inkscape:document-units="mm"
     inkscape:zoom="2.0584323"
     inkscape:cx="182.90618"
     inkscape:cy="34.735171"
     inkscape:window-width="1920"
     inkscape:window-height="1017"
     inkscape:window-x="-8"
     inkscape:window-y="-8"
     inkscape:window-maximized="1"
     inkscape:current-layer="layer1" /><defs
     id="defs1" /><g
     inkscape:label="Capa 1"
     inkscape:groupmode="layer"
     id="layer1"><path
       d="m 15.194613,18.307808 q 0.228909,0 0.386964,-0.158054 0.158054,-0.158054 0.158054,-0.386964 0,-0.22891 -0.158054,-0.386966 -0.158054,-0.158054 -0.386964,-0.158054 -0.22891,0 -0.386966,0.158054 -0.158054,0.158054 -0.158054,0.386966 0,0.228909 0.158054,0.386964 0.158054,0.158054 0.386966,0.158054 z m -0.392415,-1.678667 h 0.806631 q 0,-0.392415 0.08721,-0.577723 0.08721,-0.185307 0.370615,-0.468718 0.381515,-0.381515 0.53957,-0.637676 0.158054,-0.25616 0.158054,-0.583173 0,-0.577723 -0.392415,-0.931987 Q 15.979447,13.0756 15.31452,13.0756 q -0.599524,0 -1.01919,0.294312 -0.419667,0.294311 -0.583174,0.817531 l 0.719429,0.283411 q 0.0763,-0.29431 0.305212,-0.474168 0.228908,-0.179858 0.534122,-0.179858 0.294312,0 0.490519,0.158054 0.196208,0.158054 0.196208,0.419668 0,0.185307 -0.119904,0.392416 -0.119904,0.207108 -0.403316,0.457817 -0.359714,0.316113 -0.495971,0.604975 -0.136252,0.288861 -0.136252,0.779381 z m -2.659707,2.986719 q -0.359714,0 -0.615875,-0.25616 -0.256159,-0.256161 -0.256159,-0.615875 v -6.104243 q 0,-0.359714 0.256159,-0.615873 0.256161,-0.256161 0.615875,-0.256161 h 6.104243 q 0.359714,0 0.615875,0.256161 0.25616,0.256159 0.25616,0.615873 v 6.104243 q 0,0.359714 -0.25616,0.615875 -0.256161,0.25616 -0.615875,0.25616 z m 0,-0.872035 h 6.104243 v -6.104243 h -6.104243 z m 0,-6.104243 v 6.104243 z"
       id="path1"
       style="stroke-width:0.0109004" /><path
       d="m 15.828696,18.445656 q 0.228909,0 0.386964,-0.158054 0.158054,-0.158054 0.158054,-0.386964 0,-0.22891 -0.158054,-0.386966 -0.158054,-0.158054 -0.386964,-0.158054 -0.22891,0 -0.386966,0.158054 -0.158054,0.158054 -0.158054,0.386966 0,0.228909 0.158054,0.386964 0.158054,0.158054 0.386966,0.158054 z m -0.392415,-1.678667 h 0.806631 q 0,-0.392415 0.08721,-0.577723 0.08721,-0.185307 0.370615,-0.468718 0.381515,-0.381515 0.53957,-0.637676 0.158054,-0.25616 0.158054,-0.583173 0,-0.577723 -0.392415,-0.931987 -0.392416,-0.354264 -1.057343,-0.354264 -0.599524,0 -1.01919,0.294312 -0.419667,0.294311 -0.583174,0.817531 l 0.719429,0.283411 q 0.0763,-0.29431 0.305212,-0.474168 0.228908,-0.179858 0.534122,-0.179858 0.294312,0 0.490519,0.158054 0.196208,0.158054 0.196208,0.419668 0,0.185307 -0.119904,0.392416 -0.119904,0.207108 -0.403316,0.457817 -0.359714,0.316113 -0.495971,0.604975 -0.136252,0.288861 -0.136252,0.779381 z m -2.659707,2.986719 q -0.359714,0 -0.615875,-0.25616 Q 11.90454,19.241387 11.90454,18.881673 V 12.77743 q 0,-0.359714 0.256159,-0.615873 0.256161,-0.256161 0.615875,-0.256161 h 6.104243 q 0.359714,0 0.615875,0.256161 0.25616,0.256159 0.25616,0.615873 v 6.104243 q 0,0.359714 -0.25616,0.615875 -0.256161,0.25616 -0.615875,0.25616 z m 0,-0.872035 h 6.104243 V 12.77743 h -6.104243 z m 0,-6.104243 v 6.104243 z"
       id="path1-0"
       style="opacity:0.312;stroke-width:0.0109004" /></g></svg>
