<?xml version="1.0" encoding="utf-8"?>
<!-- Generator: Adobe Illustrator 16.0.0, SVG Export Plug-In . SVG Version: 6.00 Build 0)  -->
<!DOCTYPE svg PUBLIC "-//W3C//DTD SVG 1.1//EN" "http://www.w3.org/Graphics/SVG/1.1/DTD/svg11.dtd">
<svg version="1.1" xmlns="http://www.w3.org/2000/svg" xmlns:xlink="http://www.w3.org/1999/xlink" x="0px" y="0px"
	 width="1006.976px" height="910.035px" viewBox="0 0 1006.976 910.035" enable-background="new 0 0 1006.976 910.035"
	 xml:space="preserve">
<g id="BG">
</g>
<g id="Graphics">
	<g>
		<path fill="#383C41" d="M789.051,155.581h-65.484c-6.243-38.136-24.173-73.284-52.04-101.15
			c-72.575-72.574-190.663-72.575-263.236,0L0,462.718h286.85c34.566,0,68.349-6.733,100.409-20.013s60.71-32.407,85.151-56.848
			l53.518-53.516l-17.819-17.819l17.819,17.819c39.001-39.001,39.001-102.461,0-141.462c-18.893-18.893-44.012-29.298-70.73-29.298
			s-51.838,10.405-70.731,29.298l29.699,29.698c10.96-10.96,25.532-16.996,41.032-16.996s30.072,6.036,41.032,16.996
			c22.625,22.625,22.625,59.44,0,82.065h0l-53.518,53.516c-30.979,30.98-70.958,51.975-113.663,60.405l138.552-138.55
			c8.201-8.201,8.201-21.497,0-29.698c-8.201-8.202-21.498-8.202-29.698,0L265.498,420.718h-51.475l200.143-200.141l-29.699-29.698
			L154.625,420.718h-53.228L437.989,84.129c56.198-56.198,147.641-56.198,203.84,0c27.224,27.224,42.217,63.42,42.217,101.92
			c0,38.5-14.993,74.696-42.217,101.919L356.374,573.423l74.05,74.05h-51.372v42h100h88.119h100v-42h-60.35L504.921,545.574
			l-29.698,29.697l72.201,72.201h-57.604l-74.05-74.05l255.757-255.756c32.424-32.424,51.399-74.707,54.155-120.086h63.368V155.581z
			"/>
		<path fill="#383C41" d="M621.26,145.578c0-15.774-12.833-28.607-28.607-28.607c-15.774,0-28.607,12.833-28.607,28.607
			s12.833,28.607,28.607,28.607C608.427,174.185,621.26,161.352,621.26,145.578z"/>
	</g>
	<g>
		<path fill="#383C41" d="M452.937,759.473c35.225,0,57.777,14.82,57.777,38.017c0,15.249-9.88,27.921-25.559,32.433
			c18.471,3.865,30.284,18.9,30.284,38.016c0,25.774-23.196,42.098-59.28,42.098h-77.107V759.473H452.937z M423.512,818.537h27.063
			c8.806,0,14.391-5.154,14.391-13.102c0-7.732-5.584-12.457-14.391-12.457h-27.063V818.537z M423.512,876.744h27.063
			c11.383,0,18.471-5.584,18.471-14.391c0-8.162-7.088-13.316-18.471-13.316h-27.063V876.744z"/>
		<path fill="#383C41" d="M567.905,910.035V759.473h44.675v150.563H567.905z"/>
		<path fill="#383C41" d="M740.438,869.441h-23.626v40.594h-44.675V759.473h70.233c40.379,0,63.576,19.33,63.576,53.48
			c0,22.338-9.021,38.661-25.345,47.896l30.499,49.186h-50.688L740.438,869.441z M742.371,835.076
			c13.316,0,21.049-7.303,21.049-20.834c0-13.102-7.732-20.404-21.049-20.404h-25.559v41.238H742.371z"/>
		<path fill="#383C41" d="M926.003,759.473c48.756,0,80.973,29.854,80.973,75.174s-32.861,75.389-82.477,75.389h-64.435V759.473
			H926.003z M904.74,875.025h22.553c20.404,0,34.15-15.894,34.15-39.949c0-24.271-14.82-40.379-36.299-40.379H904.74V875.025z"/>
	</g>
</g>
</svg>
