<svg width="38" height="36" viewBox="0 0 38 36" fill="none" xmlns="http://www.w3.org/2000/svg">
<rect width="38" height="36" rx="8" fill="#B12F2F"/>
<mask id="mask0_231_57" style="mask-type:alpha" maskUnits="userSpaceOnUse" x="2" y="1" width="34" height="34">
<rect x="2" y="1" width="34" height="34" fill="#D9D9D9"/>
</mask>
<g mask="url(#mask0_231_57)">
<path d="M17.2296 11.7672L13.9061 15.0908L12.6175 13.7561L18.9998 7.37373L25.3822 13.7561L24.0936 15.0908L20.7701 11.7672L19.9165 10.9137V12.1208V23.1666H18.0832V12.1208V10.9137L17.2296 11.7672ZM27.9998 26.5V22.75H29.8332V26.5C29.8332 27.1455 29.6092 27.6856 29.1473 28.1474C28.6855 28.6093 28.1453 28.8333 27.4998 28.8333H10.4998C9.85433 28.8333 9.31419 28.6093 8.85235 28.1474C8.39051 27.6856 8.1665 27.1455 8.1665 26.5V22.75H9.99984V26.5V27H10.4998H27.4998H27.9998V26.5Z" fill="white" stroke="white"/>
</g>
</svg>
