<svg width="45" height="48" viewBox="0 0 45 48" fill="none" xmlns="http://www.w3.org/2000/svg">
<path d="M0 0H44.5V47.5H0V0Z" fill="white" fill-opacity="0.8"/>
<path d="M33.7704 38.5L26.79 31.5403L23.3101 35.1548H12.4459L9.82564 32.4931C9.18125 31.8514 8.86651 31.0938 8.88145 30.2202C8.89643 29.3465 9.21117 28.5921 9.82567 27.9569L16.3504 21.1007L8.5 13.2296L10.2296 11.5L35.5 36.7704L33.7704 38.5ZM13.813 31.9028H21.9948L24.5012 29.2514L18.6392 23.3688L12.1973 30.225L13.813 31.9028ZM30.1973 28.019L27.9085 25.7302L31.7198 21.6599L25.8993 15.6323L22.0259 19.8475L19.7578 17.5587L23.6312 13.447C24.2457 12.8118 24.999 12.4994 25.891 12.5098C26.7831 12.5201 27.5488 12.8395 28.1882 13.4678L33.9465 19.4333C34.5886 20.0749 34.9166 20.8412 34.9304 21.7321C34.9442 22.623 34.63 23.3826 33.9879 24.0109L30.1973 28.019Z" fill="#FF5C00"/>
</svg>
